G04 EAGLE Gerber RS-274X export*
G75*
%MOMM*%
%FSLAX34Y34*%
%LPD*%
%INSilkscreen Bottom*%
%IPPOS*%
%AMOC8*
5,1,8,0,0,1.08239X$1,22.5*%
G01*
%ADD10C,0.101600*%
%ADD11C,0.609600*%


D10*
X357094Y466149D02*
X355146Y466149D01*
X355146Y459658D01*
X359041Y459658D01*
X359140Y459660D01*
X359240Y459666D01*
X359339Y459675D01*
X359437Y459688D01*
X359535Y459705D01*
X359633Y459726D01*
X359729Y459751D01*
X359824Y459779D01*
X359918Y459811D01*
X360011Y459846D01*
X360103Y459885D01*
X360193Y459928D01*
X360281Y459973D01*
X360368Y460023D01*
X360452Y460075D01*
X360535Y460131D01*
X360615Y460189D01*
X360693Y460251D01*
X360768Y460316D01*
X360841Y460384D01*
X360911Y460454D01*
X360979Y460527D01*
X361044Y460602D01*
X361106Y460680D01*
X361164Y460760D01*
X361220Y460843D01*
X361272Y460927D01*
X361322Y461014D01*
X361367Y461102D01*
X361410Y461192D01*
X361449Y461284D01*
X361484Y461377D01*
X361516Y461471D01*
X361544Y461566D01*
X361569Y461662D01*
X361590Y461760D01*
X361607Y461858D01*
X361620Y461956D01*
X361629Y462055D01*
X361635Y462155D01*
X361637Y462254D01*
X361638Y462254D02*
X361638Y468746D01*
X361637Y468746D02*
X361635Y468845D01*
X361629Y468945D01*
X361620Y469044D01*
X361607Y469142D01*
X361590Y469240D01*
X361569Y469338D01*
X361544Y469434D01*
X361516Y469529D01*
X361484Y469623D01*
X361449Y469716D01*
X361410Y469808D01*
X361367Y469898D01*
X361322Y469986D01*
X361272Y470073D01*
X361220Y470157D01*
X361164Y470240D01*
X361106Y470320D01*
X361044Y470398D01*
X360979Y470473D01*
X360911Y470546D01*
X360841Y470616D01*
X360768Y470684D01*
X360693Y470749D01*
X360615Y470811D01*
X360535Y470869D01*
X360452Y470925D01*
X360368Y470977D01*
X360281Y471027D01*
X360193Y471072D01*
X360103Y471115D01*
X360011Y471154D01*
X359918Y471189D01*
X359824Y471221D01*
X359729Y471249D01*
X359633Y471274D01*
X359535Y471295D01*
X359437Y471312D01*
X359339Y471325D01*
X359240Y471334D01*
X359140Y471340D01*
X359041Y471342D01*
X355146Y471342D01*
X349446Y471342D02*
X349446Y459658D01*
X342954Y459658D02*
X349446Y471342D01*
X342954Y471342D02*
X342954Y459658D01*
X337254Y459658D02*
X337254Y471342D01*
X334008Y471342D01*
X333895Y471340D01*
X333782Y471334D01*
X333669Y471324D01*
X333556Y471310D01*
X333444Y471293D01*
X333333Y471271D01*
X333223Y471246D01*
X333113Y471216D01*
X333005Y471183D01*
X332898Y471146D01*
X332792Y471106D01*
X332688Y471061D01*
X332585Y471013D01*
X332484Y470962D01*
X332385Y470907D01*
X332288Y470849D01*
X332193Y470787D01*
X332100Y470722D01*
X332010Y470654D01*
X331922Y470583D01*
X331836Y470508D01*
X331753Y470431D01*
X331673Y470351D01*
X331596Y470268D01*
X331521Y470182D01*
X331450Y470094D01*
X331382Y470004D01*
X331317Y469911D01*
X331255Y469816D01*
X331197Y469719D01*
X331142Y469620D01*
X331091Y469519D01*
X331043Y469416D01*
X330998Y469312D01*
X330958Y469206D01*
X330921Y469099D01*
X330888Y468991D01*
X330858Y468881D01*
X330833Y468771D01*
X330811Y468660D01*
X330794Y468548D01*
X330780Y468435D01*
X330770Y468322D01*
X330764Y468209D01*
X330762Y468096D01*
X330762Y462904D01*
X330764Y462791D01*
X330770Y462678D01*
X330780Y462565D01*
X330794Y462452D01*
X330811Y462340D01*
X330833Y462229D01*
X330858Y462119D01*
X330888Y462009D01*
X330921Y461901D01*
X330958Y461794D01*
X330998Y461688D01*
X331043Y461584D01*
X331091Y461481D01*
X331142Y461380D01*
X331197Y461281D01*
X331255Y461184D01*
X331317Y461089D01*
X331382Y460996D01*
X331450Y460906D01*
X331521Y460818D01*
X331596Y460732D01*
X331673Y460649D01*
X331753Y460569D01*
X331836Y460492D01*
X331922Y460417D01*
X332010Y460346D01*
X332100Y460278D01*
X332193Y460213D01*
X332288Y460151D01*
X332385Y460093D01*
X332484Y460038D01*
X332585Y459987D01*
X332688Y459939D01*
X332792Y459894D01*
X332898Y459854D01*
X333005Y459817D01*
X333113Y459784D01*
X333223Y459754D01*
X333333Y459729D01*
X333444Y459707D01*
X333556Y459690D01*
X333669Y459676D01*
X333782Y459666D01*
X333895Y459660D01*
X334008Y459658D01*
X337254Y459658D01*
X463370Y374915D02*
X464036Y373085D01*
X463370Y374915D02*
X457270Y372695D01*
X458602Y369035D01*
X458603Y369035D02*
X458638Y368942D01*
X458678Y368851D01*
X458720Y368761D01*
X458767Y368673D01*
X458816Y368587D01*
X458869Y368503D01*
X458925Y368420D01*
X458984Y368340D01*
X459046Y368263D01*
X459111Y368188D01*
X459179Y368115D01*
X459250Y368045D01*
X459323Y367978D01*
X459399Y367913D01*
X459477Y367852D01*
X459558Y367793D01*
X459640Y367738D01*
X459725Y367686D01*
X459812Y367637D01*
X459900Y367592D01*
X459990Y367550D01*
X460082Y367511D01*
X460175Y367476D01*
X460269Y367445D01*
X460365Y367417D01*
X460461Y367393D01*
X460559Y367372D01*
X460657Y367356D01*
X460755Y367343D01*
X460854Y367334D01*
X460954Y367329D01*
X461053Y367327D01*
X461153Y367329D01*
X461252Y367335D01*
X461351Y367345D01*
X461449Y367359D01*
X461547Y367377D01*
X461644Y367398D01*
X461741Y367423D01*
X461836Y367451D01*
X461930Y367484D01*
X461930Y367483D02*
X468030Y369703D01*
X468030Y369704D02*
X468123Y369739D01*
X468214Y369779D01*
X468304Y369821D01*
X468392Y369868D01*
X468478Y369917D01*
X468562Y369970D01*
X468645Y370026D01*
X468725Y370085D01*
X468802Y370147D01*
X468877Y370212D01*
X468950Y370280D01*
X469020Y370351D01*
X469087Y370424D01*
X469152Y370500D01*
X469213Y370578D01*
X469272Y370659D01*
X469327Y370741D01*
X469379Y370826D01*
X469428Y370913D01*
X469473Y371001D01*
X469515Y371091D01*
X469554Y371183D01*
X469589Y371276D01*
X469620Y371370D01*
X469648Y371466D01*
X469672Y371562D01*
X469693Y371660D01*
X469709Y371758D01*
X469722Y371856D01*
X469731Y371955D01*
X469736Y372055D01*
X469738Y372154D01*
X469736Y372253D01*
X469730Y372353D01*
X469720Y372452D01*
X469706Y372550D01*
X469688Y372648D01*
X469667Y372745D01*
X469642Y372842D01*
X469614Y372937D01*
X469581Y373031D01*
X469582Y373031D02*
X468250Y376691D01*
X466300Y382048D02*
X455320Y378052D01*
X453100Y384152D02*
X466300Y382048D01*
X464080Y388148D02*
X453100Y384152D01*
X451151Y389509D02*
X462130Y393505D01*
X461020Y396555D01*
X460980Y396661D01*
X460935Y396765D01*
X460887Y396868D01*
X460836Y396969D01*
X460781Y397068D01*
X460723Y397165D01*
X460661Y397260D01*
X460596Y397353D01*
X460528Y397443D01*
X460457Y397531D01*
X460382Y397617D01*
X460305Y397700D01*
X460225Y397780D01*
X460142Y397857D01*
X460056Y397932D01*
X459968Y398003D01*
X459878Y398071D01*
X459785Y398136D01*
X459690Y398198D01*
X459593Y398256D01*
X459494Y398311D01*
X459393Y398362D01*
X459290Y398410D01*
X459186Y398455D01*
X459080Y398495D01*
X458973Y398532D01*
X458865Y398565D01*
X458755Y398595D01*
X458645Y398620D01*
X458534Y398642D01*
X458422Y398659D01*
X458309Y398673D01*
X458196Y398683D01*
X458083Y398689D01*
X457970Y398691D01*
X457857Y398689D01*
X457744Y398683D01*
X457631Y398673D01*
X457518Y398659D01*
X457406Y398642D01*
X457295Y398620D01*
X457185Y398595D01*
X457075Y398565D01*
X456967Y398532D01*
X456860Y398495D01*
X456860Y398494D02*
X451980Y396718D01*
X451980Y396719D02*
X451874Y396679D01*
X451770Y396634D01*
X451667Y396586D01*
X451566Y396535D01*
X451467Y396480D01*
X451370Y396422D01*
X451275Y396360D01*
X451182Y396295D01*
X451092Y396227D01*
X451004Y396156D01*
X450918Y396081D01*
X450835Y396004D01*
X450755Y395924D01*
X450678Y395841D01*
X450603Y395755D01*
X450532Y395667D01*
X450464Y395577D01*
X450399Y395484D01*
X450337Y395389D01*
X450279Y395292D01*
X450224Y395193D01*
X450173Y395092D01*
X450125Y394989D01*
X450080Y394885D01*
X450040Y394779D01*
X450003Y394672D01*
X449970Y394564D01*
X449940Y394454D01*
X449915Y394344D01*
X449893Y394233D01*
X449876Y394121D01*
X449862Y394008D01*
X449852Y393895D01*
X449846Y393782D01*
X449844Y393669D01*
X449846Y393556D01*
X449852Y393443D01*
X449862Y393330D01*
X449876Y393217D01*
X449893Y393105D01*
X449915Y392994D01*
X449940Y392884D01*
X449970Y392774D01*
X450003Y392666D01*
X450040Y392559D01*
X450041Y392559D02*
X451151Y389509D01*
X411389Y250384D02*
X409794Y249267D01*
X413517Y243950D01*
X416708Y246184D01*
X416707Y246184D02*
X416787Y246243D01*
X416865Y246305D01*
X416941Y246369D01*
X417014Y246437D01*
X417085Y246507D01*
X417152Y246580D01*
X417217Y246655D01*
X417279Y246733D01*
X417338Y246813D01*
X417394Y246895D01*
X417447Y246980D01*
X417496Y247066D01*
X417542Y247154D01*
X417585Y247244D01*
X417624Y247335D01*
X417659Y247428D01*
X417691Y247522D01*
X417720Y247618D01*
X417744Y247714D01*
X417765Y247811D01*
X417783Y247909D01*
X417796Y248008D01*
X417806Y248107D01*
X417812Y248206D01*
X417814Y248305D01*
X417812Y248405D01*
X417807Y248504D01*
X417797Y248603D01*
X417784Y248702D01*
X417768Y248800D01*
X417747Y248897D01*
X417723Y248994D01*
X417695Y249089D01*
X417663Y249183D01*
X417628Y249276D01*
X417589Y249368D01*
X417547Y249458D01*
X417501Y249546D01*
X417452Y249633D01*
X417400Y249717D01*
X417345Y249800D01*
X413622Y255117D01*
X413563Y255197D01*
X413501Y255275D01*
X413437Y255351D01*
X413369Y255424D01*
X413299Y255495D01*
X413226Y255562D01*
X413151Y255627D01*
X413073Y255689D01*
X412993Y255748D01*
X412911Y255804D01*
X412826Y255857D01*
X412740Y255906D01*
X412652Y255952D01*
X412562Y255995D01*
X412471Y256034D01*
X412378Y256069D01*
X412284Y256101D01*
X412188Y256130D01*
X412092Y256154D01*
X411995Y256175D01*
X411897Y256193D01*
X411798Y256206D01*
X411699Y256216D01*
X411600Y256222D01*
X411501Y256224D01*
X411401Y256222D01*
X411302Y256217D01*
X411203Y256208D01*
X411104Y256194D01*
X411006Y256178D01*
X410909Y256157D01*
X410812Y256133D01*
X410717Y256105D01*
X410623Y256073D01*
X410530Y256038D01*
X410438Y255999D01*
X410348Y255957D01*
X410260Y255911D01*
X410173Y255862D01*
X410089Y255810D01*
X410006Y255755D01*
X406816Y253521D01*
X402146Y250251D02*
X408847Y240680D01*
X403530Y236957D02*
X402146Y250251D01*
X396829Y246528D02*
X403530Y236957D01*
X398860Y233687D02*
X392159Y243258D01*
X389500Y241396D01*
X389500Y241397D02*
X389409Y241330D01*
X389319Y241261D01*
X389232Y241188D01*
X389148Y241112D01*
X389067Y241033D01*
X388988Y240952D01*
X388912Y240868D01*
X388839Y240781D01*
X388770Y240692D01*
X388703Y240600D01*
X388640Y240506D01*
X388580Y240410D01*
X388523Y240312D01*
X388470Y240212D01*
X388420Y240110D01*
X388374Y240006D01*
X388332Y239901D01*
X388293Y239795D01*
X388258Y239687D01*
X388227Y239578D01*
X388199Y239468D01*
X388176Y239357D01*
X388156Y239246D01*
X388140Y239134D01*
X388128Y239021D01*
X388120Y238908D01*
X388116Y238795D01*
X388116Y238681D01*
X388120Y238568D01*
X388128Y238455D01*
X388140Y238342D01*
X388156Y238230D01*
X388176Y238119D01*
X388199Y238008D01*
X388227Y237898D01*
X388258Y237789D01*
X388293Y237681D01*
X388332Y237575D01*
X388374Y237470D01*
X388420Y237366D01*
X388470Y237264D01*
X388523Y237164D01*
X388580Y237066D01*
X388640Y236970D01*
X388703Y236876D01*
X391682Y232622D01*
X391681Y232622D02*
X391748Y232531D01*
X391817Y232441D01*
X391890Y232354D01*
X391966Y232270D01*
X392045Y232189D01*
X392126Y232110D01*
X392210Y232034D01*
X392297Y231961D01*
X392387Y231892D01*
X392478Y231825D01*
X392572Y231762D01*
X392668Y231702D01*
X392766Y231645D01*
X392866Y231592D01*
X392968Y231542D01*
X393072Y231496D01*
X393177Y231454D01*
X393283Y231415D01*
X393391Y231380D01*
X393500Y231349D01*
X393610Y231321D01*
X393721Y231298D01*
X393832Y231278D01*
X393944Y231262D01*
X394057Y231250D01*
X394170Y231242D01*
X394283Y231238D01*
X394397Y231238D01*
X394510Y231242D01*
X394623Y231250D01*
X394736Y231262D01*
X394848Y231278D01*
X394959Y231298D01*
X395070Y231321D01*
X395180Y231349D01*
X395289Y231380D01*
X395397Y231415D01*
X395503Y231454D01*
X395608Y231496D01*
X395712Y231542D01*
X395814Y231592D01*
X395914Y231645D01*
X396012Y231702D01*
X396108Y231762D01*
X396202Y231825D01*
X398860Y233687D01*
X285396Y243983D02*
X283801Y245100D01*
X280078Y239783D01*
X283268Y237549D01*
X283351Y237494D01*
X283435Y237442D01*
X283522Y237393D01*
X283610Y237347D01*
X283700Y237305D01*
X283792Y237266D01*
X283885Y237231D01*
X283979Y237199D01*
X284074Y237171D01*
X284171Y237147D01*
X284268Y237126D01*
X284366Y237110D01*
X284465Y237096D01*
X284564Y237087D01*
X284663Y237082D01*
X284763Y237080D01*
X284862Y237082D01*
X284961Y237088D01*
X285060Y237098D01*
X285159Y237111D01*
X285257Y237129D01*
X285354Y237150D01*
X285450Y237174D01*
X285546Y237203D01*
X285640Y237235D01*
X285733Y237270D01*
X285824Y237309D01*
X285914Y237352D01*
X286002Y237398D01*
X286088Y237447D01*
X286173Y237500D01*
X286255Y237556D01*
X286335Y237615D01*
X286413Y237677D01*
X286488Y237742D01*
X286561Y237809D01*
X286631Y237880D01*
X286699Y237953D01*
X286763Y238029D01*
X286825Y238107D01*
X286884Y238187D01*
X290607Y243504D01*
X290662Y243587D01*
X290714Y243671D01*
X290763Y243758D01*
X290809Y243846D01*
X290851Y243936D01*
X290890Y244028D01*
X290925Y244121D01*
X290957Y244215D01*
X290985Y244310D01*
X291009Y244407D01*
X291030Y244504D01*
X291046Y244602D01*
X291060Y244701D01*
X291069Y244800D01*
X291074Y244899D01*
X291076Y244999D01*
X291074Y245098D01*
X291068Y245197D01*
X291058Y245296D01*
X291045Y245395D01*
X291027Y245493D01*
X291006Y245590D01*
X290982Y245686D01*
X290953Y245782D01*
X290921Y245876D01*
X290886Y245969D01*
X290847Y246060D01*
X290804Y246150D01*
X290758Y246238D01*
X290709Y246324D01*
X290656Y246409D01*
X290600Y246491D01*
X290541Y246571D01*
X290479Y246649D01*
X290414Y246724D01*
X290347Y246797D01*
X290276Y246867D01*
X290203Y246935D01*
X290127Y246999D01*
X290049Y247061D01*
X289969Y247120D01*
X289970Y247120D02*
X286779Y249354D01*
X282110Y252624D02*
X275408Y243053D01*
X270091Y246776D02*
X282110Y252624D01*
X276792Y256347D02*
X270091Y246776D01*
X265421Y250046D02*
X272122Y259617D01*
X269464Y261478D01*
X269464Y261479D02*
X269370Y261542D01*
X269274Y261602D01*
X269176Y261659D01*
X269076Y261712D01*
X268974Y261762D01*
X268870Y261808D01*
X268765Y261850D01*
X268659Y261889D01*
X268551Y261924D01*
X268442Y261955D01*
X268332Y261983D01*
X268221Y262006D01*
X268110Y262026D01*
X267998Y262042D01*
X267885Y262054D01*
X267772Y262062D01*
X267659Y262066D01*
X267545Y262066D01*
X267432Y262062D01*
X267319Y262054D01*
X267206Y262042D01*
X267094Y262026D01*
X266983Y262006D01*
X266872Y261983D01*
X266762Y261955D01*
X266653Y261924D01*
X266545Y261889D01*
X266439Y261850D01*
X266334Y261808D01*
X266230Y261762D01*
X266128Y261712D01*
X266028Y261659D01*
X265930Y261602D01*
X265834Y261542D01*
X265740Y261479D01*
X265649Y261412D01*
X265559Y261343D01*
X265472Y261270D01*
X265388Y261194D01*
X265307Y261115D01*
X265228Y261034D01*
X265152Y260950D01*
X265079Y260863D01*
X265010Y260774D01*
X264943Y260682D01*
X264944Y260681D02*
X261965Y256428D01*
X261902Y256334D01*
X261842Y256238D01*
X261785Y256140D01*
X261732Y256040D01*
X261682Y255938D01*
X261636Y255834D01*
X261594Y255729D01*
X261555Y255623D01*
X261520Y255515D01*
X261489Y255406D01*
X261461Y255296D01*
X261438Y255185D01*
X261418Y255074D01*
X261402Y254962D01*
X261390Y254849D01*
X261382Y254736D01*
X261378Y254623D01*
X261378Y254509D01*
X261382Y254396D01*
X261390Y254283D01*
X261402Y254170D01*
X261418Y254058D01*
X261438Y253947D01*
X261461Y253836D01*
X261489Y253726D01*
X261520Y253617D01*
X261555Y253509D01*
X261594Y253403D01*
X261636Y253298D01*
X261682Y253194D01*
X261732Y253092D01*
X261785Y252992D01*
X261842Y252894D01*
X261902Y252798D01*
X261965Y252704D01*
X262032Y252612D01*
X262101Y252523D01*
X262174Y252436D01*
X262250Y252352D01*
X262329Y252271D01*
X262410Y252192D01*
X262494Y252116D01*
X262581Y252043D01*
X262671Y251974D01*
X262762Y251907D01*
X265421Y250046D01*
X235150Y391729D02*
X235816Y393559D01*
X235150Y391729D02*
X241250Y389509D01*
X242582Y393169D01*
X242581Y393169D02*
X242614Y393263D01*
X242642Y393358D01*
X242667Y393455D01*
X242688Y393552D01*
X242706Y393650D01*
X242720Y393748D01*
X242730Y393847D01*
X242736Y393947D01*
X242738Y394046D01*
X242736Y394145D01*
X242731Y394245D01*
X242722Y394344D01*
X242709Y394442D01*
X242693Y394540D01*
X242672Y394638D01*
X242648Y394734D01*
X242620Y394830D01*
X242589Y394924D01*
X242554Y395017D01*
X242515Y395109D01*
X242473Y395199D01*
X242428Y395287D01*
X242379Y395374D01*
X242327Y395459D01*
X242272Y395541D01*
X242213Y395622D01*
X242152Y395700D01*
X242087Y395776D01*
X242020Y395849D01*
X241950Y395920D01*
X241877Y395988D01*
X241802Y396053D01*
X241725Y396115D01*
X241645Y396174D01*
X241562Y396230D01*
X241478Y396283D01*
X241392Y396332D01*
X241304Y396379D01*
X241214Y396421D01*
X241123Y396461D01*
X241030Y396496D01*
X234930Y398716D01*
X234930Y398717D02*
X234836Y398750D01*
X234741Y398778D01*
X234644Y398803D01*
X234547Y398824D01*
X234449Y398842D01*
X234351Y398856D01*
X234252Y398866D01*
X234153Y398872D01*
X234053Y398874D01*
X233954Y398872D01*
X233854Y398867D01*
X233755Y398858D01*
X233657Y398845D01*
X233558Y398829D01*
X233461Y398808D01*
X233365Y398784D01*
X233269Y398756D01*
X233175Y398725D01*
X233081Y398690D01*
X232990Y398651D01*
X232900Y398609D01*
X232811Y398564D01*
X232724Y398515D01*
X232640Y398463D01*
X232557Y398408D01*
X232476Y398349D01*
X232398Y398288D01*
X232322Y398223D01*
X232249Y398156D01*
X232179Y398086D01*
X232111Y398013D01*
X232046Y397938D01*
X231983Y397860D01*
X231924Y397780D01*
X231868Y397698D01*
X231815Y397614D01*
X231766Y397527D01*
X231720Y397439D01*
X231677Y397349D01*
X231637Y397258D01*
X231602Y397165D01*
X230270Y393505D01*
X228320Y388148D02*
X239300Y384152D01*
X237080Y378052D02*
X228320Y388148D01*
X226100Y382048D02*
X237080Y378052D01*
X235130Y372695D02*
X224151Y376691D01*
X223041Y373641D01*
X223040Y373641D02*
X223003Y373534D01*
X222970Y373426D01*
X222940Y373316D01*
X222915Y373206D01*
X222893Y373095D01*
X222876Y372983D01*
X222862Y372870D01*
X222852Y372757D01*
X222846Y372644D01*
X222844Y372531D01*
X222846Y372418D01*
X222852Y372305D01*
X222862Y372192D01*
X222876Y372079D01*
X222893Y371967D01*
X222915Y371856D01*
X222940Y371746D01*
X222970Y371636D01*
X223003Y371528D01*
X223040Y371421D01*
X223080Y371315D01*
X223125Y371211D01*
X223173Y371108D01*
X223224Y371007D01*
X223279Y370908D01*
X223337Y370811D01*
X223399Y370716D01*
X223464Y370623D01*
X223532Y370533D01*
X223603Y370445D01*
X223678Y370359D01*
X223755Y370276D01*
X223835Y370196D01*
X223918Y370119D01*
X224004Y370044D01*
X224092Y369973D01*
X224182Y369905D01*
X224275Y369840D01*
X224370Y369778D01*
X224467Y369720D01*
X224566Y369665D01*
X224667Y369614D01*
X224770Y369566D01*
X224874Y369521D01*
X224980Y369481D01*
X229860Y367705D01*
X229860Y367706D02*
X229967Y367669D01*
X230076Y367636D01*
X230185Y367606D01*
X230295Y367581D01*
X230407Y367559D01*
X230518Y367542D01*
X230631Y367528D01*
X230744Y367518D01*
X230857Y367512D01*
X230970Y367510D01*
X231083Y367512D01*
X231196Y367518D01*
X231309Y367528D01*
X231422Y367542D01*
X231534Y367559D01*
X231645Y367581D01*
X231755Y367606D01*
X231864Y367636D01*
X231973Y367669D01*
X232080Y367706D01*
X232186Y367746D01*
X232290Y367791D01*
X232393Y367838D01*
X232493Y367890D01*
X232593Y367945D01*
X232690Y368003D01*
X232785Y368065D01*
X232877Y368130D01*
X232968Y368198D01*
X233056Y368269D01*
X233141Y368344D01*
X233224Y368421D01*
X233304Y368501D01*
X233382Y368584D01*
X233456Y368669D01*
X233527Y368757D01*
X233595Y368848D01*
X233660Y368940D01*
X233722Y369035D01*
X233780Y369133D01*
X233835Y369232D01*
X233887Y369333D01*
X233934Y369435D01*
X233979Y369539D01*
X234019Y369645D01*
X234020Y369645D02*
X235130Y372695D01*
X423791Y253760D02*
X435475Y253760D01*
X435475Y257006D01*
X435476Y257006D02*
X435474Y257119D01*
X435468Y257232D01*
X435458Y257345D01*
X435444Y257458D01*
X435427Y257570D01*
X435405Y257681D01*
X435380Y257791D01*
X435350Y257901D01*
X435317Y258009D01*
X435280Y258116D01*
X435240Y258222D01*
X435195Y258326D01*
X435147Y258429D01*
X435096Y258530D01*
X435041Y258629D01*
X434983Y258726D01*
X434921Y258821D01*
X434856Y258914D01*
X434788Y259004D01*
X434717Y259092D01*
X434642Y259178D01*
X434565Y259261D01*
X434485Y259341D01*
X434402Y259418D01*
X434316Y259493D01*
X434228Y259564D01*
X434138Y259632D01*
X434045Y259697D01*
X433950Y259759D01*
X433853Y259817D01*
X433754Y259872D01*
X433653Y259923D01*
X433550Y259971D01*
X433446Y260016D01*
X433340Y260056D01*
X433233Y260093D01*
X433125Y260126D01*
X433015Y260156D01*
X432905Y260181D01*
X432794Y260203D01*
X432682Y260220D01*
X432569Y260234D01*
X432456Y260244D01*
X432343Y260250D01*
X432230Y260252D01*
X432117Y260250D01*
X432004Y260244D01*
X431891Y260234D01*
X431778Y260220D01*
X431666Y260203D01*
X431555Y260181D01*
X431445Y260156D01*
X431335Y260126D01*
X431227Y260093D01*
X431120Y260056D01*
X431014Y260016D01*
X430910Y259971D01*
X430807Y259923D01*
X430706Y259872D01*
X430607Y259817D01*
X430510Y259759D01*
X430415Y259697D01*
X430322Y259632D01*
X430232Y259564D01*
X430144Y259493D01*
X430058Y259418D01*
X429975Y259341D01*
X429895Y259261D01*
X429818Y259178D01*
X429743Y259092D01*
X429672Y259004D01*
X429604Y258914D01*
X429539Y258821D01*
X429477Y258726D01*
X429419Y258629D01*
X429364Y258530D01*
X429313Y258429D01*
X429265Y258326D01*
X429220Y258222D01*
X429180Y258116D01*
X429143Y258009D01*
X429110Y257901D01*
X429080Y257791D01*
X429055Y257681D01*
X429033Y257570D01*
X429016Y257458D01*
X429002Y257345D01*
X428992Y257232D01*
X428986Y257119D01*
X428984Y257006D01*
X428984Y253760D01*
X429633Y264640D02*
X429863Y264643D01*
X430093Y264651D01*
X430322Y264665D01*
X430551Y264684D01*
X430780Y264709D01*
X431007Y264739D01*
X431235Y264774D01*
X431461Y264815D01*
X431686Y264861D01*
X431910Y264913D01*
X432132Y264970D01*
X432354Y265032D01*
X432573Y265100D01*
X432791Y265173D01*
X433008Y265251D01*
X433222Y265334D01*
X433434Y265422D01*
X433644Y265515D01*
X433852Y265614D01*
X433853Y265613D02*
X433943Y265646D01*
X434032Y265682D01*
X434120Y265722D01*
X434205Y265766D01*
X434289Y265813D01*
X434371Y265863D01*
X434451Y265917D01*
X434528Y265973D01*
X434604Y266033D01*
X434677Y266096D01*
X434747Y266161D01*
X434815Y266230D01*
X434879Y266301D01*
X434941Y266374D01*
X435000Y266450D01*
X435056Y266528D01*
X435109Y266609D01*
X435158Y266691D01*
X435204Y266775D01*
X435247Y266862D01*
X435286Y266949D01*
X435322Y267039D01*
X435354Y267129D01*
X435382Y267221D01*
X435407Y267314D01*
X435428Y267408D01*
X435445Y267502D01*
X435459Y267597D01*
X435468Y267693D01*
X435474Y267789D01*
X435476Y267885D01*
X435474Y267981D01*
X435468Y268077D01*
X435459Y268173D01*
X435445Y268268D01*
X435428Y268362D01*
X435407Y268456D01*
X435382Y268549D01*
X435354Y268641D01*
X435322Y268731D01*
X435286Y268821D01*
X435247Y268908D01*
X435204Y268995D01*
X435158Y269079D01*
X435109Y269161D01*
X435056Y269242D01*
X435000Y269320D01*
X434941Y269396D01*
X434879Y269469D01*
X434815Y269540D01*
X434747Y269609D01*
X434677Y269674D01*
X434604Y269737D01*
X434528Y269797D01*
X434451Y269853D01*
X434371Y269907D01*
X434289Y269957D01*
X434205Y270004D01*
X434120Y270048D01*
X434032Y270088D01*
X433943Y270124D01*
X433853Y270157D01*
X433852Y270157D02*
X433645Y270256D01*
X433435Y270349D01*
X433222Y270437D01*
X433008Y270520D01*
X432792Y270598D01*
X432574Y270671D01*
X432354Y270739D01*
X432133Y270801D01*
X431910Y270858D01*
X431686Y270910D01*
X431461Y270956D01*
X431235Y270997D01*
X431008Y271032D01*
X430780Y271062D01*
X430551Y271087D01*
X430322Y271106D01*
X430093Y271120D01*
X429863Y271128D01*
X429633Y271131D01*
X429633Y264640D02*
X429403Y264643D01*
X429173Y264651D01*
X428944Y264665D01*
X428715Y264684D01*
X428486Y264709D01*
X428258Y264739D01*
X428031Y264774D01*
X427805Y264815D01*
X427580Y264861D01*
X427356Y264913D01*
X427133Y264970D01*
X426912Y265032D01*
X426692Y265100D01*
X426474Y265173D01*
X426258Y265251D01*
X426044Y265334D01*
X425832Y265422D01*
X425621Y265515D01*
X425414Y265614D01*
X425414Y265613D02*
X425324Y265646D01*
X425235Y265682D01*
X425147Y265723D01*
X425062Y265766D01*
X424978Y265813D01*
X424896Y265863D01*
X424816Y265917D01*
X424739Y265973D01*
X424663Y266033D01*
X424590Y266096D01*
X424520Y266161D01*
X424452Y266230D01*
X424388Y266301D01*
X424326Y266374D01*
X424267Y266450D01*
X424211Y266528D01*
X424158Y266609D01*
X424109Y266691D01*
X424063Y266775D01*
X424020Y266862D01*
X423981Y266949D01*
X423945Y267039D01*
X423913Y267129D01*
X423885Y267221D01*
X423860Y267314D01*
X423839Y267408D01*
X423822Y267502D01*
X423808Y267597D01*
X423799Y267693D01*
X423793Y267789D01*
X423791Y267885D01*
X425414Y270157D02*
X425621Y270256D01*
X425832Y270349D01*
X426044Y270437D01*
X426258Y270520D01*
X426474Y270598D01*
X426692Y270671D01*
X426912Y270739D01*
X427133Y270801D01*
X427356Y270858D01*
X427580Y270910D01*
X427805Y270956D01*
X428031Y270997D01*
X428258Y271032D01*
X428486Y271062D01*
X428715Y271087D01*
X428944Y271106D01*
X429173Y271120D01*
X429403Y271128D01*
X429633Y271131D01*
X425414Y270157D02*
X425324Y270124D01*
X425235Y270088D01*
X425147Y270048D01*
X425062Y270004D01*
X424978Y269957D01*
X424896Y269907D01*
X424816Y269853D01*
X424739Y269797D01*
X424663Y269737D01*
X424590Y269674D01*
X424520Y269609D01*
X424452Y269540D01*
X424388Y269469D01*
X424326Y269396D01*
X424267Y269320D01*
X424211Y269242D01*
X424158Y269161D01*
X424109Y269079D01*
X424063Y268995D01*
X424020Y268908D01*
X423981Y268821D01*
X423945Y268731D01*
X423913Y268641D01*
X423885Y268549D01*
X423860Y268456D01*
X423839Y268362D01*
X423822Y268268D01*
X423808Y268173D01*
X423799Y268077D01*
X423793Y267981D01*
X423791Y267885D01*
X426388Y265289D02*
X432879Y270482D01*
X429633Y276070D02*
X429863Y276073D01*
X430093Y276081D01*
X430322Y276095D01*
X430551Y276114D01*
X430780Y276139D01*
X431007Y276169D01*
X431235Y276204D01*
X431461Y276245D01*
X431686Y276291D01*
X431910Y276343D01*
X432132Y276400D01*
X432354Y276462D01*
X432573Y276530D01*
X432791Y276603D01*
X433008Y276681D01*
X433222Y276764D01*
X433434Y276852D01*
X433644Y276945D01*
X433852Y277044D01*
X433853Y277043D02*
X433943Y277076D01*
X434032Y277112D01*
X434120Y277152D01*
X434205Y277196D01*
X434289Y277243D01*
X434371Y277293D01*
X434451Y277347D01*
X434528Y277403D01*
X434604Y277463D01*
X434677Y277526D01*
X434747Y277591D01*
X434815Y277660D01*
X434879Y277731D01*
X434941Y277804D01*
X435000Y277880D01*
X435056Y277958D01*
X435109Y278039D01*
X435158Y278121D01*
X435204Y278205D01*
X435247Y278292D01*
X435286Y278379D01*
X435322Y278469D01*
X435354Y278559D01*
X435382Y278651D01*
X435407Y278744D01*
X435428Y278838D01*
X435445Y278932D01*
X435459Y279027D01*
X435468Y279123D01*
X435474Y279219D01*
X435476Y279315D01*
X435474Y279411D01*
X435468Y279507D01*
X435459Y279603D01*
X435445Y279698D01*
X435428Y279792D01*
X435407Y279886D01*
X435382Y279979D01*
X435354Y280071D01*
X435322Y280161D01*
X435286Y280251D01*
X435247Y280338D01*
X435204Y280425D01*
X435158Y280509D01*
X435109Y280591D01*
X435056Y280672D01*
X435000Y280750D01*
X434941Y280826D01*
X434879Y280899D01*
X434815Y280970D01*
X434747Y281039D01*
X434677Y281104D01*
X434604Y281167D01*
X434528Y281227D01*
X434451Y281283D01*
X434371Y281337D01*
X434289Y281387D01*
X434205Y281434D01*
X434120Y281478D01*
X434032Y281518D01*
X433943Y281554D01*
X433853Y281587D01*
X433852Y281587D02*
X433645Y281686D01*
X433435Y281779D01*
X433222Y281867D01*
X433008Y281950D01*
X432792Y282028D01*
X432574Y282101D01*
X432354Y282169D01*
X432133Y282231D01*
X431910Y282288D01*
X431686Y282340D01*
X431461Y282386D01*
X431235Y282427D01*
X431008Y282462D01*
X430780Y282492D01*
X430551Y282517D01*
X430322Y282536D01*
X430093Y282550D01*
X429863Y282558D01*
X429633Y282561D01*
X429633Y276069D02*
X429403Y276072D01*
X429173Y276080D01*
X428944Y276094D01*
X428715Y276113D01*
X428486Y276138D01*
X428258Y276168D01*
X428031Y276203D01*
X427805Y276244D01*
X427580Y276290D01*
X427356Y276342D01*
X427133Y276399D01*
X426912Y276461D01*
X426692Y276529D01*
X426474Y276602D01*
X426258Y276680D01*
X426044Y276763D01*
X425832Y276851D01*
X425621Y276944D01*
X425414Y277043D01*
X425324Y277076D01*
X425235Y277112D01*
X425147Y277153D01*
X425062Y277196D01*
X424978Y277243D01*
X424896Y277293D01*
X424816Y277347D01*
X424739Y277403D01*
X424663Y277463D01*
X424590Y277526D01*
X424520Y277591D01*
X424452Y277660D01*
X424388Y277731D01*
X424326Y277804D01*
X424267Y277880D01*
X424211Y277958D01*
X424158Y278039D01*
X424109Y278121D01*
X424063Y278205D01*
X424020Y278292D01*
X423981Y278379D01*
X423945Y278469D01*
X423913Y278559D01*
X423885Y278651D01*
X423860Y278744D01*
X423839Y278838D01*
X423822Y278932D01*
X423808Y279027D01*
X423799Y279123D01*
X423793Y279219D01*
X423791Y279315D01*
X425414Y281587D02*
X425621Y281686D01*
X425832Y281779D01*
X426044Y281867D01*
X426258Y281950D01*
X426474Y282028D01*
X426692Y282101D01*
X426912Y282169D01*
X427133Y282231D01*
X427356Y282288D01*
X427580Y282340D01*
X427805Y282386D01*
X428031Y282427D01*
X428258Y282462D01*
X428486Y282492D01*
X428715Y282517D01*
X428944Y282536D01*
X429173Y282550D01*
X429403Y282558D01*
X429633Y282561D01*
X425414Y281587D02*
X425324Y281554D01*
X425235Y281518D01*
X425147Y281478D01*
X425062Y281434D01*
X424978Y281387D01*
X424896Y281337D01*
X424816Y281283D01*
X424739Y281227D01*
X424663Y281167D01*
X424590Y281104D01*
X424520Y281039D01*
X424452Y280970D01*
X424388Y280899D01*
X424326Y280826D01*
X424267Y280750D01*
X424211Y280672D01*
X424158Y280591D01*
X424109Y280509D01*
X424063Y280425D01*
X424020Y280338D01*
X423981Y280251D01*
X423945Y280161D01*
X423913Y280071D01*
X423885Y279979D01*
X423860Y279886D01*
X423839Y279792D01*
X423822Y279698D01*
X423808Y279603D01*
X423799Y279507D01*
X423793Y279411D01*
X423791Y279315D01*
X426388Y276719D02*
X432879Y281912D01*
X435475Y287954D02*
X423791Y287954D01*
X435475Y287954D02*
X435475Y291200D01*
X435476Y291200D02*
X435474Y291313D01*
X435468Y291426D01*
X435458Y291539D01*
X435444Y291652D01*
X435427Y291764D01*
X435405Y291875D01*
X435380Y291985D01*
X435350Y292095D01*
X435317Y292203D01*
X435280Y292310D01*
X435240Y292416D01*
X435195Y292520D01*
X435147Y292623D01*
X435096Y292724D01*
X435041Y292823D01*
X434983Y292920D01*
X434921Y293015D01*
X434856Y293108D01*
X434788Y293198D01*
X434717Y293286D01*
X434642Y293372D01*
X434565Y293455D01*
X434485Y293535D01*
X434402Y293612D01*
X434316Y293687D01*
X434228Y293758D01*
X434138Y293826D01*
X434045Y293891D01*
X433950Y293953D01*
X433853Y294011D01*
X433754Y294066D01*
X433653Y294117D01*
X433550Y294165D01*
X433446Y294210D01*
X433340Y294250D01*
X433233Y294287D01*
X433125Y294320D01*
X433015Y294350D01*
X432905Y294375D01*
X432794Y294397D01*
X432682Y294414D01*
X432569Y294428D01*
X432456Y294438D01*
X432343Y294444D01*
X432230Y294446D01*
X432117Y294444D01*
X432004Y294438D01*
X431891Y294428D01*
X431778Y294414D01*
X431666Y294397D01*
X431555Y294375D01*
X431445Y294350D01*
X431335Y294320D01*
X431227Y294287D01*
X431120Y294250D01*
X431014Y294210D01*
X430910Y294165D01*
X430807Y294117D01*
X430706Y294066D01*
X430607Y294011D01*
X430510Y293953D01*
X430415Y293891D01*
X430322Y293826D01*
X430232Y293758D01*
X430144Y293687D01*
X430058Y293612D01*
X429975Y293535D01*
X429895Y293455D01*
X429818Y293372D01*
X429743Y293286D01*
X429672Y293198D01*
X429604Y293108D01*
X429539Y293015D01*
X429477Y292920D01*
X429419Y292823D01*
X429364Y292724D01*
X429313Y292623D01*
X429265Y292520D01*
X429220Y292416D01*
X429180Y292310D01*
X429143Y292203D01*
X429110Y292095D01*
X429080Y291985D01*
X429055Y291875D01*
X429033Y291764D01*
X429016Y291652D01*
X429002Y291539D01*
X428992Y291426D01*
X428986Y291313D01*
X428984Y291200D01*
X428984Y287954D01*
X428984Y291849D02*
X423791Y294445D01*
X434177Y299311D02*
X435475Y299311D01*
X435475Y305802D01*
X423791Y302556D01*
X429633Y310741D02*
X429863Y310744D01*
X430093Y310752D01*
X430322Y310766D01*
X430551Y310785D01*
X430780Y310810D01*
X431007Y310840D01*
X431235Y310875D01*
X431461Y310916D01*
X431686Y310962D01*
X431910Y311014D01*
X432132Y311071D01*
X432354Y311133D01*
X432573Y311201D01*
X432791Y311274D01*
X433008Y311352D01*
X433222Y311435D01*
X433434Y311523D01*
X433644Y311616D01*
X433852Y311715D01*
X433853Y311714D02*
X433943Y311747D01*
X434032Y311783D01*
X434120Y311823D01*
X434205Y311867D01*
X434289Y311914D01*
X434371Y311964D01*
X434451Y312018D01*
X434528Y312074D01*
X434604Y312134D01*
X434677Y312197D01*
X434747Y312262D01*
X434815Y312331D01*
X434879Y312402D01*
X434941Y312475D01*
X435000Y312551D01*
X435056Y312629D01*
X435109Y312710D01*
X435158Y312792D01*
X435204Y312876D01*
X435247Y312963D01*
X435286Y313050D01*
X435322Y313140D01*
X435354Y313230D01*
X435382Y313322D01*
X435407Y313415D01*
X435428Y313509D01*
X435445Y313603D01*
X435459Y313698D01*
X435468Y313794D01*
X435474Y313890D01*
X435476Y313986D01*
X435474Y314082D01*
X435468Y314178D01*
X435459Y314274D01*
X435445Y314369D01*
X435428Y314463D01*
X435407Y314557D01*
X435382Y314650D01*
X435354Y314742D01*
X435322Y314832D01*
X435286Y314922D01*
X435247Y315009D01*
X435204Y315096D01*
X435158Y315180D01*
X435109Y315262D01*
X435056Y315343D01*
X435000Y315421D01*
X434941Y315497D01*
X434879Y315570D01*
X434815Y315641D01*
X434747Y315710D01*
X434677Y315775D01*
X434604Y315838D01*
X434528Y315898D01*
X434451Y315954D01*
X434371Y316008D01*
X434289Y316058D01*
X434205Y316105D01*
X434120Y316149D01*
X434032Y316189D01*
X433943Y316225D01*
X433853Y316258D01*
X433852Y316258D02*
X433645Y316357D01*
X433435Y316450D01*
X433222Y316538D01*
X433008Y316621D01*
X432792Y316699D01*
X432574Y316772D01*
X432354Y316840D01*
X432133Y316902D01*
X431910Y316959D01*
X431686Y317011D01*
X431461Y317057D01*
X431235Y317098D01*
X431008Y317133D01*
X430780Y317163D01*
X430551Y317188D01*
X430322Y317207D01*
X430093Y317221D01*
X429863Y317229D01*
X429633Y317232D01*
X429633Y310740D02*
X429403Y310743D01*
X429173Y310751D01*
X428944Y310765D01*
X428715Y310784D01*
X428486Y310809D01*
X428258Y310839D01*
X428031Y310874D01*
X427805Y310915D01*
X427580Y310961D01*
X427356Y311013D01*
X427133Y311070D01*
X426912Y311132D01*
X426692Y311200D01*
X426474Y311273D01*
X426258Y311351D01*
X426044Y311434D01*
X425832Y311522D01*
X425621Y311615D01*
X425414Y311714D01*
X425324Y311747D01*
X425235Y311783D01*
X425147Y311824D01*
X425062Y311867D01*
X424978Y311914D01*
X424896Y311964D01*
X424816Y312018D01*
X424739Y312074D01*
X424663Y312134D01*
X424590Y312197D01*
X424520Y312262D01*
X424452Y312331D01*
X424388Y312402D01*
X424326Y312475D01*
X424267Y312551D01*
X424211Y312629D01*
X424158Y312710D01*
X424109Y312792D01*
X424063Y312876D01*
X424020Y312963D01*
X423981Y313050D01*
X423945Y313140D01*
X423913Y313230D01*
X423885Y313322D01*
X423860Y313415D01*
X423839Y313509D01*
X423822Y313603D01*
X423808Y313698D01*
X423799Y313794D01*
X423793Y313890D01*
X423791Y313986D01*
X425414Y316258D02*
X425621Y316357D01*
X425832Y316450D01*
X426044Y316538D01*
X426258Y316621D01*
X426474Y316699D01*
X426692Y316772D01*
X426912Y316840D01*
X427133Y316902D01*
X427356Y316959D01*
X427580Y317011D01*
X427805Y317057D01*
X428031Y317098D01*
X428258Y317133D01*
X428486Y317163D01*
X428715Y317188D01*
X428944Y317207D01*
X429173Y317221D01*
X429403Y317229D01*
X429633Y317232D01*
X425414Y316258D02*
X425324Y316225D01*
X425235Y316189D01*
X425147Y316149D01*
X425062Y316105D01*
X424978Y316058D01*
X424896Y316008D01*
X424816Y315954D01*
X424739Y315898D01*
X424663Y315838D01*
X424590Y315775D01*
X424520Y315710D01*
X424452Y315641D01*
X424388Y315570D01*
X424326Y315497D01*
X424267Y315421D01*
X424211Y315343D01*
X424158Y315262D01*
X424109Y315180D01*
X424063Y315096D01*
X424020Y315009D01*
X423981Y314922D01*
X423945Y314832D01*
X423913Y314742D01*
X423885Y314650D01*
X423860Y314557D01*
X423839Y314463D01*
X423822Y314369D01*
X423808Y314274D01*
X423799Y314178D01*
X423793Y314082D01*
X423791Y313986D01*
X426388Y311390D02*
X432879Y316583D01*
D11*
X346202Y250444D02*
X346202Y441960D01*
X300990Y270002D02*
X392430Y270002D01*
X416560Y295402D02*
X275590Y295402D01*
X275590Y320802D02*
X416560Y320802D01*
X441960Y346202D02*
X250190Y346202D01*
X250190Y371602D02*
X441960Y371602D01*
X416560Y397002D02*
X275590Y397002D01*
X300990Y422402D02*
X391160Y422402D01*
M02*
